<svg xmlns="http://www.w3.org/2000/svg" xmlns:xlink="http://www.w3.org/1999/xlink" width="500" zoomAndPan="magnify" viewBox="0 0 375 374.999991" height="500" preserveAspectRatio="xMidYMid meet" version="1.0"><defs><g/><clipPath id="570d1091aa"><path d="M 152 141 L 223 141 L 223 188.238281 L 152 188.238281 Z M 152 141 " clip-rule="nonzero"/></clipPath><clipPath id="03a6ed8fe0"><path d="M 127 101.238281 L 248 101.238281 L 248 162 L 127 162 Z M 127 101.238281 " clip-rule="nonzero"/></clipPath></defs><g clip-path="url(#570d1091aa)"><path fill="#ffffff" d="M 214.605469 170.570312 L 201.050781 170.570312 C 196.0625 170.570312 191.242188 172.375 187.496094 175.535156 C 183.734375 172.363281 178.929688 170.570312 173.941406 170.570312 L 160.398438 170.570312 L 160.398438 141.085938 L 152.144531 141.085938 L 152.144531 178.835938 L 173.953125 178.835938 C 178.035156 178.835938 181.757812 180.714844 184.191406 183.992188 L 187.507812 188.472656 L 190.820312 183.992188 C 193.253906 180.714844 196.976562 178.835938 201.0625 178.835938 L 222.871094 178.835938 L 222.871094 141.085938 L 214.605469 141.085938 Z M 214.605469 170.570312 " fill-opacity="1" fill-rule="nonzero"/></g><path fill="#ffffff" d="M 167.253906 150.554688 L 176.601562 150.554688 L 176.601562 159.90625 L 167.253906 159.90625 Z M 167.253906 150.554688 " fill-opacity="1" fill-rule="nonzero"/><path fill="#ffffff" d="M 182.820312 150.554688 L 192.167969 150.554688 L 192.167969 159.90625 L 182.820312 159.90625 Z M 182.820312 150.554688 " fill-opacity="1" fill-rule="nonzero"/><path fill="#ffffff" d="M 198.386719 150.554688 L 207.738281 150.554688 L 207.738281 159.90625 L 198.386719 159.90625 Z M 198.386719 150.554688 " fill-opacity="1" fill-rule="nonzero"/><g clip-path="url(#03a6ed8fe0)"><path fill="#ffffff" d="M 237.945312 148.339844 L 237.945312 126.109375 L 247.738281 122.625 L 187.496094 101.25 L 127.25 122.625 L 187.496094 144.011719 L 229.679688 129.035156 L 229.679688 148.339844 C 227.90625 149.617188 226.75 151.699219 226.75 154.0625 C 226.75 157.964844 229.90625 161.121094 233.8125 161.121094 C 237.714844 161.121094 240.871094 157.964844 240.871094 154.0625 C 240.871094 151.710938 239.714844 149.628906 237.945312 148.339844 Z M 237.945312 148.339844 " fill-opacity="1" fill-rule="nonzero"/></g><g fill="#ffffff" fill-opacity="1"><g transform="translate(87.316405, 227.224087)"><g><path d="M 10.078125 0.40625 C 8.609375 0.40625 7.257812 0.234375 6.03125 -0.109375 C 4.8125 -0.453125 3.769531 -0.925781 2.90625 -1.53125 C 2.039062 -2.132812 1.398438 -2.828125 0.984375 -3.609375 L 3.984375 -6.859375 L 4.390625 -6.859375 C 5.109375 -5.890625 5.957031 -5.164062 6.9375 -4.6875 C 7.914062 -4.207031 8.976562 -3.96875 10.125 -3.96875 C 11.175781 -3.96875 11.96875 -4.15625 12.5 -4.53125 C 13.03125 -4.90625 13.296875 -5.445312 13.296875 -6.15625 C 13.296875 -6.695312 13.101562 -7.15625 12.71875 -7.53125 C 12.34375 -7.90625 11.722656 -8.195312 10.859375 -8.40625 L 8.015625 -9.078125 C 5.878906 -9.585938 4.316406 -10.363281 3.328125 -11.40625 C 2.347656 -12.457031 1.859375 -13.789062 1.859375 -15.40625 C 1.859375 -16.75 2.195312 -17.914062 2.875 -18.90625 C 3.5625 -19.894531 4.523438 -20.648438 5.765625 -21.171875 C 7.015625 -21.691406 8.46875 -21.953125 10.125 -21.953125 C 12.0625 -21.953125 13.664062 -21.671875 14.9375 -21.109375 C 16.21875 -20.554688 17.21875 -19.8125 17.9375 -18.875 L 15.046875 -15.75 L 14.65625 -15.75 C 14.050781 -16.425781 13.375 -16.921875 12.625 -17.234375 C 11.875 -17.546875 11.039062 -17.703125 10.125 -17.703125 C 7.988281 -17.703125 6.921875 -17.035156 6.921875 -15.703125 C 6.921875 -15.140625 7.117188 -14.679688 7.515625 -14.328125 C 7.910156 -13.984375 8.609375 -13.703125 9.609375 -13.484375 L 12.265625 -12.890625 C 14.453125 -12.421875 16.050781 -11.664062 17.0625 -10.625 C 18.070312 -9.59375 18.578125 -8.207031 18.578125 -6.46875 C 18.578125 -5.101562 18.238281 -3.898438 17.5625 -2.859375 C 16.882812 -1.816406 15.90625 -1.007812 14.625 -0.4375 C 13.351562 0.125 11.835938 0.40625 10.078125 0.40625 Z M 10.078125 0.40625 "/></g></g></g><g fill="#ffffff" fill-opacity="1"><g transform="translate(107.177751, 227.224087)"><g><path d="M 3.109375 0 L 3.109375 -21.546875 L 8.296875 -21.546875 L 8.296875 -18.65625 L 8.71875 -18.578125 C 9.414062 -19.734375 10.234375 -20.582031 11.171875 -21.125 C 12.117188 -21.675781 13.332031 -21.953125 14.8125 -21.953125 C 16.4375 -21.953125 17.742188 -21.628906 18.734375 -20.984375 C 19.722656 -20.335938 20.445312 -19.398438 20.90625 -18.171875 L 21.3125 -18.171875 C 21.976562 -19.453125 22.832031 -20.398438 23.875 -21.015625 C 24.925781 -21.640625 26.234375 -21.953125 27.796875 -21.953125 C 32.265625 -21.953125 34.5 -19.46875 34.5 -14.5 L 34.5 0 L 29.078125 0 L 29.078125 -13.8125 C 29.078125 -15.070312 28.828125 -15.984375 28.328125 -16.546875 C 27.835938 -17.109375 27.046875 -17.390625 25.953125 -17.390625 C 22.984375 -17.390625 21.5 -15.398438 21.5 -11.421875 L 21.5 0 L 16.09375 0 L 16.09375 -13.8125 C 16.09375 -15.070312 15.84375 -15.984375 15.34375 -16.546875 C 14.84375 -17.109375 14.046875 -17.390625 12.953125 -17.390625 C 11.554688 -17.390625 10.46875 -16.921875 9.6875 -15.984375 C 8.90625 -15.054688 8.515625 -13.578125 8.515625 -11.546875 L 8.515625 0 Z M 3.109375 0 "/></g></g></g><g fill="#ffffff" fill-opacity="1"><g transform="translate(144.439734, 227.224087)"><g><path d="M 8.40625 0.40625 C 7.019531 0.40625 5.816406 0.15625 4.796875 -0.34375 C 3.785156 -0.851562 3.003906 -1.597656 2.453125 -2.578125 C 1.910156 -3.566406 1.640625 -4.753906 1.640625 -6.140625 C 1.640625 -7.410156 1.910156 -8.476562 2.453125 -9.34375 C 3.003906 -10.207031 3.851562 -10.914062 5 -11.46875 C 6.144531 -12.03125 7.644531 -12.457031 9.5 -12.75 C 10.78125 -12.957031 11.753906 -13.1875 12.421875 -13.4375 C 13.097656 -13.6875 13.550781 -13.96875 13.78125 -14.28125 C 14.019531 -14.59375 14.140625 -14.988281 14.140625 -15.46875 C 14.140625 -16.15625 13.898438 -16.679688 13.421875 -17.046875 C 12.941406 -17.410156 12.140625 -17.59375 11.015625 -17.59375 C 9.816406 -17.59375 8.675781 -17.328125 7.59375 -16.796875 C 6.519531 -16.265625 5.582031 -15.5625 4.78125 -14.6875 L 4.390625 -14.6875 L 2.125 -18.109375 C 3.21875 -19.316406 4.550781 -20.257812 6.125 -20.9375 C 7.707031 -21.613281 9.429688 -21.953125 11.296875 -21.953125 C 14.140625 -21.953125 16.195312 -21.347656 17.46875 -20.140625 C 18.75 -18.929688 19.390625 -17.210938 19.390625 -14.984375 L 19.390625 -5.625 C 19.390625 -4.664062 19.816406 -4.1875 20.671875 -4.1875 C 20.992188 -4.1875 21.3125 -4.242188 21.625 -4.359375 L 21.890625 -4.28125 L 22.28125 -0.515625 C 21.988281 -0.316406 21.570312 -0.15625 21.03125 -0.03125 C 20.5 0.09375 19.914062 0.15625 19.28125 0.15625 C 17.988281 0.15625 16.976562 -0.0859375 16.25 -0.578125 C 15.53125 -1.078125 15.015625 -1.851562 14.703125 -2.90625 L 14.296875 -2.953125 C 13.242188 -0.710938 11.28125 0.40625 8.40625 0.40625 Z M 10.125 -3.640625 C 11.375 -3.640625 12.367188 -4.054688 13.109375 -4.890625 C 13.859375 -5.734375 14.234375 -6.90625 14.234375 -8.40625 L 14.234375 -10.59375 L 13.875 -10.671875 C 13.539062 -10.410156 13.109375 -10.191406 12.578125 -10.015625 C 12.054688 -9.835938 11.300781 -9.664062 10.3125 -9.5 C 9.144531 -9.300781 8.300781 -8.960938 7.78125 -8.484375 C 7.269531 -8.015625 7.015625 -7.34375 7.015625 -6.46875 C 7.015625 -5.539062 7.285156 -4.835938 7.828125 -4.359375 C 8.378906 -3.878906 9.144531 -3.640625 10.125 -3.640625 Z M 10.125 -3.640625 "/></g></g></g><g fill="#ffffff" fill-opacity="1"><g transform="translate(167.152364, 227.224087)"><g><path d="M 3.109375 0 L 3.109375 -21.546875 L 8.359375 -21.546875 L 8.359375 -18.34375 L 8.765625 -18.265625 C 9.285156 -19.460938 9.96875 -20.335938 10.8125 -20.890625 C 11.664062 -21.453125 12.695312 -21.734375 13.90625 -21.734375 C 15.132812 -21.734375 16.066406 -21.523438 16.703125 -21.109375 L 15.78125 -16.453125 L 15.375 -16.375 C 15.019531 -16.507812 14.679688 -16.609375 14.359375 -16.671875 C 14.035156 -16.742188 13.640625 -16.78125 13.171875 -16.78125 C 11.660156 -16.78125 10.503906 -16.25 9.703125 -15.1875 C 8.910156 -14.125 8.515625 -12.421875 8.515625 -10.078125 L 8.515625 0 Z M 3.109375 0 "/></g></g></g><g fill="#ffffff" fill-opacity="1"><g transform="translate(184.045249, 227.224087)"><g><path d="M 14.859375 -5.140625 L 16.265625 -1.140625 C 15.679688 -0.648438 14.945312 -0.269531 14.0625 0 C 13.175781 0.269531 12.175781 0.40625 11.0625 0.40625 C 8.726562 0.40625 6.953125 -0.226562 5.734375 -1.5 C 4.523438 -2.769531 3.921875 -4.613281 3.921875 -7.03125 L 3.921875 -17.265625 L 0.640625 -17.265625 L 0.640625 -21.5625 L 3.921875 -21.5625 L 3.921875 -25.765625 L 9.34375 -26.640625 L 9.34375 -21.5625 L 15.453125 -21.5625 L 15.453125 -17.265625 L 9.34375 -17.265625 L 9.34375 -7.421875 C 9.34375 -6.359375 9.5625 -5.582031 10 -5.09375 C 10.445312 -4.601562 11.09375 -4.359375 11.9375 -4.359375 C 12.894531 -4.359375 13.734375 -4.617188 14.453125 -5.140625 Z M 14.859375 -5.140625 "/></g></g></g><g fill="#ffffff" fill-opacity="1"><g transform="translate(200.7819, 227.224087)"><g><path d="M 12.5625 0.40625 C 10.476562 0.40625 8.632812 -0.0234375 7.03125 -0.890625 C 5.425781 -1.753906 4.175781 -3.023438 3.28125 -4.703125 C 2.382812 -6.390625 1.9375 -8.410156 1.9375 -10.765625 C 1.9375 -13.128906 2.382812 -15.148438 3.28125 -16.828125 C 4.175781 -18.515625 5.414062 -19.789062 7 -20.65625 C 8.59375 -21.519531 10.414062 -21.953125 12.46875 -21.953125 C 17.007812 -21.953125 19.914062 -20.304688 21.1875 -17.015625 L 17.484375 -14.359375 L 17.078125 -14.359375 C 16.628906 -15.367188 16.050781 -16.117188 15.34375 -16.609375 C 14.632812 -17.109375 13.675781 -17.359375 12.46875 -17.359375 C 10.90625 -17.359375 9.6875 -16.816406 8.8125 -15.734375 C 7.9375 -14.660156 7.5 -13.003906 7.5 -10.765625 C 7.5 -8.546875 7.941406 -6.894531 8.828125 -5.8125 C 9.710938 -4.726562 10.957031 -4.1875 12.5625 -4.1875 C 13.726562 -4.1875 14.71875 -4.5 15.53125 -5.125 C 16.351562 -5.757812 16.9375 -6.671875 17.28125 -7.859375 L 17.703125 -7.890625 L 21.546875 -5.78125 C 20.992188 -3.957031 19.976562 -2.46875 18.5 -1.3125 C 17.03125 -0.164062 15.050781 0.40625 12.5625 0.40625 Z M 12.5625 0.40625 "/></g></g></g><g fill="#ffffff" fill-opacity="1"><g transform="translate(222.986767, 227.224087)"><g><path d="M 3.109375 0 L 3.109375 -30.203125 L 8.515625 -30.203125 L 8.515625 -18.734375 L 8.921875 -18.65625 C 9.640625 -19.707031 10.519531 -20.519531 11.5625 -21.09375 C 12.601562 -21.664062 13.859375 -21.953125 15.328125 -21.953125 C 20.085938 -21.953125 22.46875 -19.257812 22.46875 -13.875 L 22.46875 0 L 17.046875 0 L 17.046875 -13.1875 C 17.046875 -14.65625 16.753906 -15.722656 16.171875 -16.390625 C 15.585938 -17.054688 14.675781 -17.390625 13.4375 -17.390625 C 11.925781 -17.390625 10.726562 -16.882812 9.84375 -15.875 C 8.957031 -14.863281 8.515625 -13.289062 8.515625 -11.15625 L 8.515625 0 Z M 3.109375 0 "/></g></g></g><g fill="#ffffff" fill-opacity="1"><g transform="translate(248.218676, 227.224087)"><g><path d="M 8.40625 0.40625 C 7.019531 0.40625 5.816406 0.15625 4.796875 -0.34375 C 3.785156 -0.851562 3.003906 -1.597656 2.453125 -2.578125 C 1.910156 -3.566406 1.640625 -4.753906 1.640625 -6.140625 C 1.640625 -7.410156 1.910156 -8.476562 2.453125 -9.34375 C 3.003906 -10.207031 3.851562 -10.914062 5 -11.46875 C 6.144531 -12.03125 7.644531 -12.457031 9.5 -12.75 C 10.78125 -12.957031 11.753906 -13.1875 12.421875 -13.4375 C 13.097656 -13.6875 13.550781 -13.96875 13.78125 -14.28125 C 14.019531 -14.59375 14.140625 -14.988281 14.140625 -15.46875 C 14.140625 -16.15625 13.898438 -16.679688 13.421875 -17.046875 C 12.941406 -17.410156 12.140625 -17.59375 11.015625 -17.59375 C 9.816406 -17.59375 8.675781 -17.328125 7.59375 -16.796875 C 6.519531 -16.265625 5.582031 -15.5625 4.78125 -14.6875 L 4.390625 -14.6875 L 2.125 -18.109375 C 3.21875 -19.316406 4.550781 -20.257812 6.125 -20.9375 C 7.707031 -21.613281 9.429688 -21.953125 11.296875 -21.953125 C 14.140625 -21.953125 16.195312 -21.347656 17.46875 -20.140625 C 18.75 -18.929688 19.390625 -17.210938 19.390625 -14.984375 L 19.390625 -5.625 C 19.390625 -4.664062 19.816406 -4.1875 20.671875 -4.1875 C 20.992188 -4.1875 21.3125 -4.242188 21.625 -4.359375 L 21.890625 -4.28125 L 22.28125 -0.515625 C 21.988281 -0.316406 21.570312 -0.15625 21.03125 -0.03125 C 20.5 0.09375 19.914062 0.15625 19.28125 0.15625 C 17.988281 0.15625 16.976562 -0.0859375 16.25 -0.578125 C 15.53125 -1.078125 15.015625 -1.851562 14.703125 -2.90625 L 14.296875 -2.953125 C 13.242188 -0.710938 11.28125 0.40625 8.40625 0.40625 Z M 10.125 -3.640625 C 11.375 -3.640625 12.367188 -4.054688 13.109375 -4.890625 C 13.859375 -5.734375 14.234375 -6.90625 14.234375 -8.40625 L 14.234375 -10.59375 L 13.875 -10.671875 C 13.539062 -10.410156 13.109375 -10.191406 12.578125 -10.015625 C 12.054688 -9.835938 11.300781 -9.664062 10.3125 -9.5 C 9.144531 -9.300781 8.300781 -8.960938 7.78125 -8.484375 C 7.269531 -8.015625 7.015625 -7.34375 7.015625 -6.46875 C 7.015625 -5.539062 7.285156 -4.835938 7.828125 -4.359375 C 8.378906 -3.878906 9.144531 -3.640625 10.125 -3.640625 Z M 10.125 -3.640625 "/></g></g></g><g fill="#ffffff" fill-opacity="1"><g transform="translate(270.931306, 227.224087)"><g><path d="M 14.859375 -5.140625 L 16.265625 -1.140625 C 15.679688 -0.648438 14.945312 -0.269531 14.0625 0 C 13.175781 0.269531 12.175781 0.40625 11.0625 0.40625 C 8.726562 0.40625 6.953125 -0.226562 5.734375 -1.5 C 4.523438 -2.769531 3.921875 -4.613281 3.921875 -7.03125 L 3.921875 -17.265625 L 0.640625 -17.265625 L 0.640625 -21.5625 L 3.921875 -21.5625 L 3.921875 -25.765625 L 9.34375 -26.640625 L 9.34375 -21.5625 L 15.453125 -21.5625 L 15.453125 -17.265625 L 9.34375 -17.265625 L 9.34375 -7.421875 C 9.34375 -6.359375 9.5625 -5.582031 10 -5.09375 C 10.445312 -4.601562 11.09375 -4.359375 11.9375 -4.359375 C 12.894531 -4.359375 13.734375 -4.617188 14.453125 -5.140625 Z M 14.859375 -5.140625 "/></g></g></g><g fill="#ffffff" fill-opacity="1"><g transform="translate(138.613997, 247.219134)"><g><path d="M 4.625 0.125 C 3.84375 0.125 3.15625 -0.03125 2.5625 -0.34375 C 1.96875 -0.664062 1.503906 -1.148438 1.171875 -1.796875 C 0.835938 -2.453125 0.671875 -3.269531 0.671875 -4.25 C 0.671875 -5.21875 0.835938 -6.023438 1.171875 -6.671875 C 1.503906 -7.328125 1.96875 -7.8125 2.5625 -8.125 C 3.15625 -8.445312 3.84375 -8.609375 4.625 -8.609375 C 5.40625 -8.609375 6.09375 -8.445312 6.6875 -8.125 C 7.28125 -7.8125 7.742188 -7.328125 8.078125 -6.671875 C 8.410156 -6.023438 8.578125 -5.21875 8.578125 -4.25 C 8.578125 -3.269531 8.410156 -2.453125 8.078125 -1.796875 C 7.742188 -1.148438 7.28125 -0.664062 6.6875 -0.34375 C 6.09375 -0.03125 5.40625 0.125 4.625 0.125 Z M 4.625 -1.328125 C 5.34375 -1.328125 5.890625 -1.554688 6.265625 -2.015625 C 6.648438 -2.484375 6.84375 -3.226562 6.84375 -4.25 C 6.84375 -5.257812 6.648438 -5.992188 6.265625 -6.453125 C 5.890625 -6.921875 5.34375 -7.15625 4.625 -7.15625 C 3.90625 -7.15625 3.351562 -6.921875 2.96875 -6.453125 C 2.582031 -5.992188 2.390625 -5.257812 2.390625 -4.25 C 2.390625 -3.226562 2.582031 -2.484375 2.96875 -2.015625 C 3.351562 -1.554688 3.90625 -1.328125 4.625 -1.328125 Z M 4.625 -1.328125 "/></g></g></g><g fill="#ffffff" fill-opacity="1"><g transform="translate(147.854959, 247.219134)"><g><path d="M 2.734375 0 L 1.109375 0 L 1.109375 -8.484375 L 3.03125 -8.484375 L 6.4375 -3.015625 L 6.578125 -3.046875 L 6.578125 -8.484375 L 8.203125 -8.484375 L 8.203125 0 L 6.484375 0 L 2.875 -5.84375 L 2.734375 -5.8125 Z M 2.734375 0 "/></g></g></g><g fill="#ffffff" fill-opacity="1"><g transform="translate(157.153932, 247.219134)"><g><path d="M 2.78125 -8.484375 L 2.78125 -1.40625 L 6.59375 -1.40625 L 6.59375 0 L 1.109375 0 L 1.109375 -8.484375 Z M 2.78125 -8.484375 "/></g></g></g><g fill="#ffffff" fill-opacity="1"><g transform="translate(164.022289, 247.219134)"><g><path d="M 2.78125 0 L 1.109375 0 L 1.109375 -8.484375 L 2.78125 -8.484375 Z M 2.78125 0 "/></g></g></g><g fill="#ffffff" fill-opacity="1"><g transform="translate(167.908945, 247.219134)"><g><path d="M 2.734375 0 L 1.109375 0 L 1.109375 -8.484375 L 3.03125 -8.484375 L 6.4375 -3.015625 L 6.578125 -3.046875 L 6.578125 -8.484375 L 8.203125 -8.484375 L 8.203125 0 L 6.484375 0 L 2.875 -5.84375 L 2.734375 -5.8125 Z M 2.734375 0 "/></g></g></g><g fill="#ffffff" fill-opacity="1"><g transform="translate(177.207917, 247.219134)"><g><path d="M 2.78125 -3.734375 L 2.78125 -1.40625 L 6.828125 -1.40625 L 6.828125 0 L 1.109375 0 L 1.109375 -8.484375 L 6.734375 -8.484375 L 6.734375 -7.078125 L 2.78125 -7.078125 L 2.78125 -5.09375 L 6.234375 -5.09375 L 6.234375 -3.734375 Z M 2.78125 -3.734375 "/></g></g></g><g fill="#ffffff" fill-opacity="1"><g transform="translate(184.499751, 247.219134)"><g/></g></g><g fill="#ffffff" fill-opacity="1"><g transform="translate(187.301628, 247.219134)"><g><path d="M 4.640625 0.125 C 3.859375 0.125 3.164062 -0.0351562 2.5625 -0.359375 C 1.96875 -0.691406 1.503906 -1.179688 1.171875 -1.828125 C 0.835938 -2.484375 0.671875 -3.289062 0.671875 -4.25 C 0.671875 -5.195312 0.835938 -6 1.171875 -6.65625 C 1.503906 -7.3125 1.96875 -7.800781 2.5625 -8.125 C 3.164062 -8.445312 3.859375 -8.609375 4.640625 -8.609375 C 5.453125 -8.609375 6.144531 -8.445312 6.71875 -8.125 C 7.289062 -7.8125 7.695312 -7.328125 7.9375 -6.671875 L 6.71875 -5.921875 L 6.578125 -5.921875 C 6.390625 -6.367188 6.140625 -6.6875 5.828125 -6.875 C 5.515625 -7.070312 5.117188 -7.171875 4.640625 -7.171875 C 3.929688 -7.171875 3.378906 -6.9375 2.984375 -6.46875 C 2.585938 -6 2.390625 -5.257812 2.390625 -4.25 C 2.390625 -3.238281 2.585938 -2.5 2.984375 -2.03125 C 3.378906 -1.5625 3.929688 -1.328125 4.640625 -1.328125 C 5.742188 -1.328125 6.421875 -1.863281 6.671875 -2.9375 L 6.8125 -2.9375 L 8.046875 -2.296875 C 7.816406 -1.484375 7.421875 -0.875 6.859375 -0.46875 C 6.296875 -0.0703125 5.554688 0.125 4.640625 0.125 Z M 4.640625 0.125 "/></g></g></g><g fill="#ffffff" fill-opacity="1"><g transform="translate(195.620231, 247.219134)"><g><path d="M 4.625 0.125 C 3.84375 0.125 3.15625 -0.03125 2.5625 -0.34375 C 1.96875 -0.664062 1.503906 -1.148438 1.171875 -1.796875 C 0.835938 -2.453125 0.671875 -3.269531 0.671875 -4.25 C 0.671875 -5.21875 0.835938 -6.023438 1.171875 -6.671875 C 1.503906 -7.328125 1.96875 -7.8125 2.5625 -8.125 C 3.15625 -8.445312 3.84375 -8.609375 4.625 -8.609375 C 5.40625 -8.609375 6.09375 -8.445312 6.6875 -8.125 C 7.28125 -7.8125 7.742188 -7.328125 8.078125 -6.671875 C 8.410156 -6.023438 8.578125 -5.21875 8.578125 -4.25 C 8.578125 -3.269531 8.410156 -2.453125 8.078125 -1.796875 C 7.742188 -1.148438 7.28125 -0.664062 6.6875 -0.34375 C 6.09375 -0.03125 5.40625 0.125 4.625 0.125 Z M 4.625 -1.328125 C 5.34375 -1.328125 5.890625 -1.554688 6.265625 -2.015625 C 6.648438 -2.484375 6.84375 -3.226562 6.84375 -4.25 C 6.84375 -5.257812 6.648438 -5.992188 6.265625 -6.453125 C 5.890625 -6.921875 5.34375 -7.15625 4.625 -7.15625 C 3.90625 -7.15625 3.351562 -6.921875 2.96875 -6.453125 C 2.582031 -5.992188 2.390625 -5.257812 2.390625 -4.25 C 2.390625 -3.226562 2.582031 -2.484375 2.96875 -2.015625 C 3.351562 -1.554688 3.90625 -1.328125 4.625 -1.328125 Z M 4.625 -1.328125 "/></g></g></g><g fill="#ffffff" fill-opacity="1"><g transform="translate(204.861193, 247.219134)"><g><path d="M 4.5 0.125 C 3.332031 0.125 2.460938 -0.148438 1.890625 -0.703125 C 1.328125 -1.265625 1.046875 -2.09375 1.046875 -3.1875 L 1.046875 -8.484375 L 2.6875 -8.484375 L 2.6875 -3.1875 C 2.6875 -2.570312 2.835938 -2.109375 3.140625 -1.796875 C 3.441406 -1.484375 3.894531 -1.328125 4.5 -1.328125 C 5.707031 -1.328125 6.3125 -1.945312 6.3125 -3.1875 L 6.3125 -8.484375 L 7.953125 -8.484375 L 7.953125 -3.1875 C 7.953125 -2.09375 7.664062 -1.265625 7.09375 -0.703125 C 6.53125 -0.148438 5.664062 0.125 4.5 0.125 Z M 4.5 0.125 "/></g></g></g><g fill="#ffffff" fill-opacity="1"><g transform="translate(213.852709, 247.219134)"><g><path d="M 1.109375 0 L 1.109375 -8.484375 L 4.515625 -8.484375 C 5.390625 -8.484375 6.050781 -8.28125 6.5 -7.875 C 6.945312 -7.476562 7.171875 -6.921875 7.171875 -6.203125 C 7.171875 -5.691406 7.039062 -5.269531 6.78125 -4.9375 C 6.519531 -4.613281 6.128906 -4.363281 5.609375 -4.1875 L 5.609375 -4.0625 C 5.878906 -3.945312 6.09375 -3.773438 6.25 -3.546875 C 6.414062 -3.316406 6.570312 -2.976562 6.71875 -2.53125 L 7.578125 0 L 5.84375 0 L 5.015625 -2.53125 C 4.929688 -2.789062 4.832031 -2.988281 4.71875 -3.125 C 4.613281 -3.269531 4.476562 -3.375 4.3125 -3.4375 C 4.15625 -3.5 3.945312 -3.53125 3.6875 -3.53125 L 2.78125 -3.53125 L 2.78125 0 Z M 4.3125 -4.859375 C 5.125 -4.859375 5.53125 -5.238281 5.53125 -6 C 5.53125 -6.769531 5.125 -7.15625 4.3125 -7.15625 L 2.78125 -7.15625 L 2.78125 -4.859375 Z M 4.3125 -4.859375 "/></g></g></g><g fill="#ffffff" fill-opacity="1"><g transform="translate(221.782651, 247.219134)"><g><path d="M 3.765625 0.125 C 3.171875 0.125 2.644531 0.0507812 2.1875 -0.09375 C 1.726562 -0.238281 1.347656 -0.425781 1.046875 -0.65625 C 0.742188 -0.894531 0.507812 -1.160156 0.34375 -1.453125 L 1.265625 -2.578125 L 1.40625 -2.578125 C 1.664062 -2.191406 1.988281 -1.882812 2.375 -1.65625 C 2.769531 -1.4375 3.234375 -1.328125 3.765625 -1.328125 C 4.210938 -1.328125 4.550781 -1.421875 4.78125 -1.609375 C 5.007812 -1.804688 5.125 -2.066406 5.125 -2.390625 C 5.125 -2.597656 5.085938 -2.769531 5.015625 -2.90625 C 4.941406 -3.039062 4.816406 -3.15625 4.640625 -3.25 C 4.472656 -3.34375 4.242188 -3.425781 3.953125 -3.5 L 2.859375 -3.75 C 2.097656 -3.925781 1.53125 -4.210938 1.15625 -4.609375 C 0.78125 -5.015625 0.59375 -5.539062 0.59375 -6.1875 C 0.59375 -6.675781 0.710938 -7.097656 0.953125 -7.453125 C 1.191406 -7.816406 1.539062 -8.097656 2 -8.296875 C 2.457031 -8.503906 3.007812 -8.609375 3.65625 -8.609375 C 4.3125 -8.609375 4.867188 -8.519531 5.328125 -8.34375 C 5.796875 -8.175781 6.191406 -7.914062 6.515625 -7.5625 L 5.6875 -6.421875 L 5.53125 -6.421875 C 5.289062 -6.671875 5.015625 -6.859375 4.703125 -6.984375 C 4.398438 -7.109375 4.050781 -7.171875 3.65625 -7.171875 C 3.195312 -7.171875 2.84375 -7.085938 2.59375 -6.921875 C 2.351562 -6.765625 2.234375 -6.546875 2.234375 -6.265625 C 2.234375 -5.992188 2.316406 -5.773438 2.484375 -5.609375 C 2.660156 -5.453125 2.957031 -5.332031 3.375 -5.25 L 4.484375 -5.015625 C 5.304688 -4.835938 5.898438 -4.539062 6.265625 -4.125 C 6.640625 -3.707031 6.828125 -3.164062 6.828125 -2.5 C 6.828125 -1.96875 6.710938 -1.503906 6.484375 -1.109375 C 6.265625 -0.722656 5.921875 -0.421875 5.453125 -0.203125 C 4.992188 0.015625 4.429688 0.125 3.765625 0.125 Z M 3.765625 0.125 "/></g></g></g><g fill="#ffffff" fill-opacity="1"><g transform="translate(229.068679, 247.219134)"><g><path d="M 2.78125 -3.734375 L 2.78125 -1.40625 L 6.828125 -1.40625 L 6.828125 0 L 1.109375 0 L 1.109375 -8.484375 L 6.734375 -8.484375 L 6.734375 -7.078125 L 2.78125 -7.078125 L 2.78125 -5.09375 L 6.234375 -5.09375 L 6.234375 -3.734375 Z M 2.78125 -3.734375 "/></g></g></g></svg>